# xmcd
#
# Track frame offsets: 
#        150
#        15898
#        30436
#        42858
#        55444
#        66359
#        79640
#        96580
#        115069
#        140816
#        154735
#        169448
#        183735
#        195111
#        207883
#
# Disc length: 2977 seconds
#
# Revision: 0
# Processed by: cddbd v1.5.2PL0 Copyright (c) Steve Scherf et al.
# Submitted via: ExactAudioCopy v0.99pb5
#
DISCID=cb0b9f0f
DTITLE=Blue Moon Orchestra - Christmastime
DYEAR=2008
DGENRE=Swing
TTITLE0=Christmastime in our little town
TTITLE1=Adeste fidelis in swing
TTITLE2=White Christmas
TTITLE3=Christmas night in Harlem
TTITLE4=Leise rieselt der Schnee
TTITLE5=In a nutcracker mood
TTITLE6=Kling, Glöckchen swing
TTITLE7=Winterwonderland
TTITLE8=A Glenn Miller Yultide Medley
TTITLE9=Don't sit under the Christmastree
TTITLE10=Jingle bells
TTITLE11=Begin the beguine
TTITLE12=Let it snow
TTITLE13=Silent night
TTITLE14=Weihnachtszeit in unserer kleinen Stadt
EXTD=
EXTT0=
EXTT1=
EXTT2=
EXTT3=
EXTT4=
EXTT5=
EXTT6=
EXTT7=
EXTT8=
EXTT9=
EXTT10=
EXTT11=
EXTT12=
EXTT13=
EXTT14=
PLAYORDER=
